<?xml version="1.0" encoding="UTF-8"?>
<svg id="Layer_2" data-name="Layer 2" xmlns="http://www.w3.org/2000/svg" viewBox="0 0 500 172.28">
  <defs>
    <style>
      .cls-1 {
        fill: #4285f4;
      }

      .cls-2 {
        fill: #fbbc05;
      }

      .cls-3 {
        fill: #34a853;
      }

      .cls-4 {
        fill: #ea4335;
      }
    </style>
  </defs>
  <g id="Layer_1-2" data-name="Layer 1">
    <g>
      <path class="cls-1" d="m16.72,130.12H0V0h75.96v15.99H16.72v42.71h53.43v15.63H16.72v55.79Z"/>
      <path class="cls-4" d="m91.95,51.7c8.6-9.02,19.56-13.54,32.89-13.54s24.29,4.52,32.89,13.54c8.6,9.03,12.9,20.33,12.9,33.89s-4.3,24.87-12.9,33.89c-8.6,9.03-19.57,13.54-32.89,13.54s-24.29-4.51-32.89-13.54c-8.6-9.02-12.9-20.32-12.9-33.89s4.3-24.87,12.9-33.89Zm12.45,57.25c5.75,5.88,12.57,8.81,20.45,8.81s14.69-2.94,20.44-8.81c5.75-5.88,8.63-13.66,8.63-23.35s-2.88-17.47-8.63-23.35c-5.76-5.88-12.57-8.81-20.44-8.81s-14.69,2.94-20.45,8.81c-5.76,5.88-8.63,13.66-8.63,23.35s2.88,17.48,8.63,23.35Z"/>
      <path class="cls-2" d="m192.53,51.7c8.6-9.02,19.56-13.54,32.89-13.54s24.29,4.52,32.89,13.54c8.6,9.03,12.9,20.33,12.9,33.89s-4.3,24.87-12.9,33.89c-8.6,9.03-19.57,13.54-32.89,13.54s-24.29-4.51-32.89-13.54c-8.6-9.02-12.9-20.32-12.9-33.89s4.3-24.87,12.9-33.89Zm12.45,57.25c5.75,5.88,12.57,8.81,20.45,8.81s14.69-2.94,20.44-8.81c5.75-5.88,8.63-13.66,8.63-23.35s-2.88-17.47-8.63-23.35c-5.76-5.88-12.57-8.81-20.44-8.81s-14.69,2.94-20.45,8.81c-5.76,5.88-8.63,13.66-8.63,23.35s2.88,17.48,8.63,23.35Z"/>
      <path class="cls-1" d="m324.02,172.28c-10.54,0-19.14-2.64-25.81-7.91-6.66-5.27-11.45-11.3-14.36-18.08l15.27-6.36c1.7,4.84,4.82,8.91,9.36,12.18s9.72,4.91,15.54,4.91c9.21,0,16.45-2.76,21.72-8.27,5.27-5.51,7.9-12.99,7.9-22.44v-8.54h-.73c-2.91,4.36-7.03,8-12.36,10.9-5.33,2.91-11.33,4.36-17.99,4.36-11.51,0-21.45-4.54-29.8-13.63-8.36-9.09-12.54-20.35-12.54-33.8s4.18-24.72,12.54-33.8c8.36-9.09,18.29-13.63,29.8-13.63,6.66,0,12.66,1.45,17.99,4.36,5.33,2.91,9.45,6.54,12.36,10.9h.73v-12.36h15.99v84.51c0,15.27-4.42,26.87-13.27,34.8-8.85,7.93-19.63,11.9-32.35,11.9Zm1.27-54.52c7.87,0,14.57-2.91,20.08-8.72,5.51-5.82,8.27-13.63,8.27-23.44s-2.76-17.63-8.27-23.44c-5.52-5.82-12.21-8.72-20.08-8.72s-14.42,2.94-19.99,8.81c-5.57,5.88-8.36,13.66-8.36,23.35s2.78,17.48,8.36,23.35c5.57,5.88,12.24,8.81,19.99,8.81Z"/>
      <path class="cls-3" d="m400.78,130.12h-16.72V0h16.72v130.12Z"/>
      <path class="cls-4" d="m458.2,133.03c-13.45,0-24.38-4.48-32.8-13.45-8.42-8.96-12.63-20.29-12.63-33.98,0-12.96,4.09-24.11,12.27-33.44,8.18-9.33,18.63-13.99,31.35-13.99s23.78,4.3,31.71,12.9c7.93,8.6,11.9,20.11,11.9,34.53l-.18,3.09h-70.33c.48,8.97,3.48,16.06,9,21.26,5.51,5.21,11.96,7.81,19.35,7.81,11.99,0,20.11-5.09,24.35-15.27l14.9,6.18c-2.91,6.91-7.7,12.69-14.36,17.36-6.66,4.66-14.84,7-24.53,7Zm23.99-58.15c-.36-5.09-2.7-9.93-7-14.54-4.3-4.6-10.69-6.91-19.17-6.91-6.18,0-11.54,1.94-16.08,5.82-4.54,3.88-7.66,9.09-9.36,15.63h51.61Z"/>
    </g>
  </g>
</svg>